<?xml version="1.0" encoding="utf-8"?>
<!-- Designed by Vexels.com - 2017 All Rights Reserved - https://vexels.com/terms-and-conditions/  -->

<svg version="1.1" id="Layer_1" xmlns="http://www.w3.org/2000/svg" xmlns:xlink="http://www.w3.org/1999/xlink" x="0px" y="0px"
	 width="1200px" height="1200px" viewBox="0 0 1200 1200" enable-background="new 0 0 1200 1200" xml:space="preserve">
<g>
	<path fill-rule="evenodd" clip-rule="evenodd" fill="#343A4B" d="M1121.927,363.67c-5.772-10.795,30.421-18.173-174.79,2.035
		c0,0-8.709-1.529-11.115,9.138c-2.406,10.68-0.115,8.175-79.476,38.618c-79.348,30.44-396.758,152.214-396.758,152.214
		s-71.572-21.312-34.926-61.376c36.644-40.068,90.366-52.552,97.462-55.268c1.561-0.602,5.087-19.309,0.992-22.279
		c-14.455-10.456-66.593-10.213-128.273,33.717c-79.159,56.382-99.115,72.162-175.711,67.407
		c-76.595-4.755-200.168,3.648-162.283,174.425c50.955,162.516,71.58,160.443,74.234,162.759
		c2.66,2.329,63.842,57.367,146.836-10.232c82.976-67.606,83.327-92.105,103.917-93.519c20.59-1.398,134.664,24.742,157.592-42.576
		c-42.067,4.761-65.929,18.788-87.173,5.817c0,0-61.319-28.501-16.919-78.043L935.741,454.61c0,0,38.253-14.683,43.142-1.923
		c4.889,12.747,38.381-22.851,89.062-39.047c50.68-16.196,105.45-44.537,71.579-60.804L1121.927,363.67z"/>
	<path fill-rule="evenodd" clip-rule="evenodd" fill="#305776" d="M1124.679,343.999c-5.772-10.789,30.421-18.167-174.79,2.035
		c0,0-8.709-1.536-11.115,9.138c-2.406,10.68-0.122,8.178-79.476,38.618c-79.342,30.44-396.761,152.217-396.761,152.217
		s-71.567-21.306-34.929-61.38c36.646-40.068,90.372-52.546,97.468-55.272c7.084-2.716-48.127-44.928-127.286,11.435
		c-79.16,56.388-99.108,72.175-175.705,67.414c-76.595-4.748-200.168,3.648-162.283,174.431
		c50.949,162.51,71.572,160.443,74.237,162.753c2.657,2.329,63.842,57.374,146.829-10.232
		c82.98-67.602,83.327-92.101,103.921-93.515c20.594-1.395,134.663,24.745,157.591-42.579c-42.074,4.761-65.936,18.788-87.169,5.817
		c0,0-61.32-28.498-16.929-78.043l500.205-191.901c0,0,38.254-14.673,43.149-1.92c4.896,12.753,38.375-22.851,89.062-39.041
		c50.681-16.202,97.662-29.343,63.792-45.606L1124.679,343.999z"/>
	<path fill-rule="evenodd" clip-rule="evenodd" fill="#38455D" d="M478.862,539.746l-16.326,6.262c0,0-71.57-21.309-34.929-61.38
		c36.646-40.068,90.372-52.546,97.468-55.272c0.838-0.32,0.794-1.197-0.045-2.387c-9.854-2.848-22.806-5.087-39.431-6.661
		c-42.216-4.006-97.518,75.432-127.794,93.355c-56.724,33.582-151.467,35.287-165.029,77.332
		c-40.592,125.844,38.524,100.993,11.074,198.722C184.053,860.203,27.478,754.882,87.542,571.69
		c6.807-20.758,14.527-36.644,23.162-49.042c-43.03,20.17-72.002,64.899-50.901,159.989
		c50.949,162.51,71.572,160.443,74.237,162.753c2.657,2.329,63.842,57.374,146.829-10.232
		c82.98-67.602,83.327-92.101,103.921-93.518c13.636-0.921,68.271,10.219,110.276-1.693c-10.149-12.977-57.302-11.748-68.049-42.47
		c-27.655-79.034,1.283-65.286,23.11-115.221C456.493,567.678,466.992,553.408,478.862,539.746z"/>
	<g>
		<path fill-rule="evenodd" clip-rule="evenodd" fill="#494F59" d="M1097.745,326.287c-3.903,1.497-8.3-0.458-9.797-4.371
			c-1.504-3.91,0.461-8.3,4.371-9.797c3.916-1.504,8.293,0.448,9.797,4.364C1103.613,320.4,1101.674,324.783,1097.745,326.287z"/>
		<path fill-rule="evenodd" clip-rule="evenodd" fill="#494F59" d="M1070.952,328.437c-3.916,1.504-8.3-0.448-9.81-4.364
			c-1.497-3.91,0.461-8.296,4.377-9.797c3.91-1.498,8.293,0.451,9.797,4.367C1076.814,322.56,1074.862,326.94,1070.952,328.437z"/>
		<path fill-rule="evenodd" clip-rule="evenodd" fill="#494F59" d="M1044.14,330.6c-3.916,1.504-8.306-0.451-9.81-4.358
			c-1.497-3.916,0.454-8.312,4.371-9.816c3.916-1.504,8.306,0.461,9.81,4.371C1050.008,324.713,1048.05,329.1,1044.14,330.6z"/>
		<path fill-rule="evenodd" clip-rule="evenodd" fill="#494F59" d="M1016.458,334.715c-3.91,1.501-8.3-0.451-9.797-4.368
			c-1.504-3.913,0.448-8.296,4.364-9.8c3.91-1.497,8.3,0.454,9.797,4.364C1022.326,328.828,1020.374,333.214,1016.458,334.715z"/>
		<path fill-rule="evenodd" clip-rule="evenodd" fill="#494F59" d="M990.523,334.906c-3.916,1.504-8.293-0.441-9.803-4.364
			c-1.497-3.916,0.454-8.3,4.364-9.797c3.917-1.504,8.3,0.448,9.797,4.358C996.391,329.026,994.433,333.409,990.523,334.906z"/>
		<path fill-rule="evenodd" clip-rule="evenodd" fill="#494F59" d="M960.006,340.122c-3.91,1.498-8.299-0.461-9.797-4.377
			c-1.504-3.91,0.454-8.296,4.364-9.797c3.91-1.501,8.293,0.454,9.797,4.364C965.874,334.225,963.916,338.618,960.006,340.122z"/>
	</g>
	<g>
		<path fill-rule="evenodd" clip-rule="evenodd" fill="#FDFDFE" d="M1100.996,355.928c-3.917,1.497-8.306-0.454-9.803-4.364
			c-1.504-3.91,0.454-8.302,4.364-9.8c3.923-1.507,8.3,0.454,9.803,4.361C1106.857,350.034,1104.918,354.42,1100.996,355.928z"/>
		<path fill-rule="evenodd" clip-rule="evenodd" fill="#FDFDFE" d="M1074.197,358.077c-3.916,1.504-8.306-0.451-9.803-4.361
			c-1.504-3.916,0.448-8.303,4.364-9.813c3.91-1.491,8.293,0.461,9.797,4.377C1080.052,352.197,1078.1,356.58,1074.197,358.077z"/>
		<path fill-rule="evenodd" clip-rule="evenodd" fill="#FDFDFE" d="M1047.378,360.243c-3.91,1.501-8.3-0.451-9.803-4.37
			c-1.497-3.913,0.461-8.303,4.371-9.8c3.916-1.503,8.299,0.448,9.803,4.358C1053.253,354.357,1051.294,358.743,1047.378,360.243z"
			/>
		<path fill-rule="evenodd" clip-rule="evenodd" fill="#FDFDFE" d="M1019.703,364.355c-3.91,1.498-8.3-0.448-9.803-4.364
			c-1.504-3.923,0.454-8.306,4.37-9.807c3.91-1.501,8.3,0.448,9.803,4.367C1025.57,358.471,1023.612,362.851,1019.703,364.355z"/>
		<path fill-rule="evenodd" clip-rule="evenodd" fill="#FDFDFE" d="M993.767,364.553c-3.916,1.504-8.306-0.451-9.803-4.371
			c-1.497-3.903,0.454-8.3,4.371-9.803c3.91-1.504,8.293,0.461,9.797,4.371C999.635,358.666,997.683,363.053,993.767,364.553z"/>
		<path fill-rule="evenodd" clip-rule="evenodd" fill="#FDFDFE" d="M963.25,369.756c-3.916,1.504-8.306-0.458-9.803-4.361
			c-1.504-3.919,0.454-8.309,4.364-9.813c3.903-1.497,8.306,0.454,9.81,4.377C969.125,363.862,967.16,368.258,963.25,369.756z"/>
	</g>
	<path fill-rule="evenodd" clip-rule="evenodd" fill="#E4E2E2" d="M427.435,556.217c0,0-26.239-17.559-25.252-27.695
		c0.995-10.129-31.306,41.274-83.834,48.419c-52.533,7.144-89.257,13.108-96.555,11.038c-7.295-2.076-31.488-5.813-8.637,32.568
		c22.857,38.375,49.423,113.989,32.452,156.617c-16.967,42.617-50.413,76.228-6.589,67.542c43.8-8.671,91.732-68.783,101.321-78.619
		c9.602-9.842,22.453-43.641,85.424-32.03c62.972,11.598,85.88-13.447,94.704-20.083c8.837-6.639-66.369,13.655-89.131-13.172
		c-22.753-26.815-33.845-40.433-4.947-71.026C455.303,599.174,427.435,556.217,427.435,556.217z"/>
	<polygon fill-rule="evenodd" clip-rule="evenodd" fill="#282223" points="936.86,430.687 917.075,374.881 374.35,583.093 
		395.55,638.355 	"/>
	<path fill-rule="evenodd" clip-rule="evenodd" fill="#FDFDFE" d="M198.813,724.64c-7.426-7.122-33.145-45.126-22.201-75.579
		c10.949-30.459,36.244-20.605,42.962-15.46c6.722,5.145,26.641,63.094,28.21,75.662
		C236.217,742.007,206.265,731.778,198.813,724.64z"/>
	<path fill-rule="evenodd" clip-rule="evenodd" fill="#999A9A" d="M373.965,582.396c0,0-3.624-9.451-14.964-5.103
		c-11.344,4.355-9.491,6.354-8.223,9.659c1.273,3.318,22.846,59.556,22.846,59.556s1.55,9.704,11.475,5.897
		c9.931-3.811,11.805-9.528,9.221-16.27C391.731,629.39,374.713,584.418,373.965,582.396z"/>
	<path fill-rule="evenodd" clip-rule="evenodd" fill="#999A9A" d="M351.941,591.393c0,0-3.631-9.458-14.969-5.11
		c-11.355,4.358-9.495,6.358-8.226,9.666c1.267,3.308,22.85,59.553,22.85,59.553s1.548,9.711,11.477,5.9
		c9.927-3.811,11.8-9.531,9.208-16.27C369.69,638.374,351.941,591.393,351.941,591.393z"/>
	<path fill-rule="evenodd" clip-rule="evenodd" fill="#999A9A" d="M317.33,605.752c0,0-3.63-9.451-14.974-5.1
		c-11.341,4.351-9.49,6.357-8.224,9.656c1.267,3.308,22.853,59.559,22.853,59.559s1.548,9.707,11.48,5.893
		c9.915-3.801,11.793-9.531,9.208-16.269C335.081,652.747,317.33,605.752,317.33,605.752z"/>
	<path fill-rule="evenodd" clip-rule="evenodd" fill="#999A9A" d="M279.041,620.438c0,0-3.627-9.451-14.977-5.097
		c-11.337,4.348-9.474,6.351-8.205,9.653c1.264,3.305,22.85,59.556,22.85,59.556s1.542,9.707,11.477,5.9
		c9.915-3.801,11.784-9.528,9.199-16.273C296.795,667.436,279.041,620.438,279.041,620.438z"/>
	<path fill-rule="evenodd" clip-rule="evenodd" fill="#999A9A" d="M257.31,628.776c0,0-3.627-9.451-14.98-5.094
		c-11.341,4.345-9.491,6.354-8.229,9.656c1.269,3.308,22.85,59.559,22.85,59.559s1.566,9.701,11.478,5.897
		c9.934-3.811,11.803-9.535,9.215-16.279C275.058,675.777,257.31,628.776,257.31,628.776z"/>
	<g>
		<path fill-rule="evenodd" clip-rule="evenodd" fill="#FDFDFE" d="M360.015,593.005c-1.854,0.71-3.928-0.205-4.644-2.061
			c-0.705-1.846,0.224-3.923,2.078-4.633c1.845-0.704,3.91,0.218,4.62,2.067C362.779,590.228,361.859,592.298,360.015,593.005z"/>
		<path fill-rule="evenodd" clip-rule="evenodd" fill="#FDFDFE" d="M364.259,604.066c-1.857,0.713-3.934-0.205-4.641-2.057
			c-0.712-1.849,0.214-3.932,2.073-4.639c1.843-0.71,3.91,0.218,4.622,2.073C367.02,601.292,366.107,603.356,364.259,604.066z"/>
		<path fill-rule="evenodd" clip-rule="evenodd" fill="#FDFDFE" d="M368.505,615.124c-1.859,0.713-3.932-0.199-4.644-2.051
			c-0.71-1.849,0.216-3.929,2.072-4.643c1.848-0.707,3.916,0.224,4.622,2.076C371.267,612.356,370.343,614.416,368.505,615.124z"/>
		<path fill-rule="evenodd" clip-rule="evenodd" fill="#FDFDFE" d="M376.095,636.435c-1.845,0.71-3.923-0.214-4.63-2.06
			c-0.707-1.846,0.219-3.919,2.067-4.633c1.846-0.71,3.915,0.221,4.622,2.067C378.86,633.655,377.946,635.725,376.095,636.435z"/>
		<path fill-rule="evenodd" clip-rule="evenodd" fill="#FDFDFE" d="M380.34,647.499c-1.845,0.71-3.923-0.211-4.63-2.06
			c-0.712-1.862,0.221-3.923,2.065-4.633c1.851-0.71,3.911,0.205,4.626,2.067C383.109,644.719,382.192,646.789,380.34,647.499z"/>
		<path fill-rule="evenodd" clip-rule="evenodd" fill="#FDFDFE" d="M371.851,625.372c-1.845,0.71-3.924-0.214-4.628-2.054
			c-0.715-1.856,0.218-3.922,2.065-4.633c1.851-0.71,3.912,0.214,4.624,2.067C374.619,622.594,373.705,624.665,371.851,625.372z"/>
	</g>
	<g>
		<path fill-rule="evenodd" clip-rule="evenodd" fill="#FDFDFE" d="M341.414,600.14c-1.854,0.71-3.924-0.208-4.636-2.06
			c-0.707-1.846,0.216-3.922,2.07-4.633c1.838-0.704,3.915,0.218,4.622,2.067C344.179,597.366,343.253,599.436,341.414,600.14z"/>
		<path fill-rule="evenodd" clip-rule="evenodd" fill="#FDFDFE" d="M345.658,611.204c-1.854,0.71-3.927-0.211-4.636-2.06
			c-0.71-1.856,0.211-3.929,2.065-4.643c1.838-0.704,3.919,0.224,4.63,2.076C348.423,608.424,347.497,610.5,345.658,611.204z"/>
		<path fill-rule="evenodd" clip-rule="evenodd" fill="#FDFDFE" d="M349.901,622.255c-1.854,0.714-3.924-0.198-4.631-2.048
			c-0.709-1.856,0.208-3.929,2.065-4.639c1.835-0.707,3.913,0.218,4.623,2.07C352.669,619.484,351.736,621.558,349.901,622.255z"/>
		<path fill-rule="evenodd" clip-rule="evenodd" fill="#FDFDFE" d="M357.5,643.57c-1.859,0.71-3.924-0.211-4.635-2.06
			c-0.707-1.849,0.213-3.916,2.069-4.63c1.845-0.707,3.913,0.221,4.62,2.064C360.264,640.787,359.344,642.866,357.5,643.57z"/>
		<path fill-rule="evenodd" clip-rule="evenodd" fill="#FDFDFE" d="M361.744,654.634c-1.854,0.71-3.921-0.211-4.631-2.06
			c-0.712-1.856,0.205-3.916,2.062-4.633c1.848-0.707,3.912,0.205,4.624,2.07C364.509,651.857,363.585,653.93,361.744,654.634z"/>
		<path fill-rule="evenodd" clip-rule="evenodd" fill="#FDFDFE" d="M353.254,632.506c-1.854,0.717-3.919-0.211-4.63-2.054
			c-0.709-1.859,0.21-3.916,2.067-4.63c1.841-0.707,3.908,0.208,4.62,2.064C356.018,629.729,355.099,631.803,353.254,632.506z"/>
	</g>
	<g>
		<path fill-rule="evenodd" clip-rule="evenodd" fill="#FDFDFE" d="M307.221,613.261c-1.848,0.707-3.918-0.214-4.631-2.06
			c-0.709-1.852,0.215-3.926,2.065-4.636c1.854-0.71,3.924,0.211,4.63,2.063C309.998,610.481,309.075,612.548,307.221,613.261z"/>
		<path fill-rule="evenodd" clip-rule="evenodd" fill="#FDFDFE" d="M311.465,624.322c-1.848,0.707-3.924-0.211-4.631-2.06
			c-0.712-1.856,0.211-3.935,2.059-4.639c1.859-0.714,3.924,0.217,4.636,2.07C314.239,621.539,313.316,623.612,311.465,624.322z"/>
		<path fill-rule="evenodd" clip-rule="evenodd" fill="#FDFDFE" d="M315.703,635.38c-1.848,0.704-3.918-0.205-4.625-2.054
			c-0.712-1.856,0.213-3.935,2.063-4.639c1.848-0.71,3.923,0.218,4.636,2.07C318.483,632.602,317.562,634.663,315.703,635.38z"/>
		<path fill-rule="evenodd" clip-rule="evenodd" fill="#FDFDFE" d="M323.305,656.688c-1.848,0.71-3.918-0.211-4.623-2.064
			c-0.71-1.846,0.206-3.919,2.054-4.623c1.851-0.71,3.921,0.211,4.628,2.06C326.076,653.908,325.15,655.981,323.305,656.688z"/>
		<path fill-rule="evenodd" clip-rule="evenodd" fill="#FDFDFE" d="M327.546,667.752c-1.845,0.71-3.913-0.214-4.623-2.067
			c-0.712-1.852,0.213-3.916,2.06-4.626c1.846-0.71,3.916,0.208,4.628,2.067C330.318,664.972,329.397,667.045,327.546,667.752z"/>
		<path fill-rule="evenodd" clip-rule="evenodd" fill="#FDFDFE" d="M319.061,645.624c-1.848,0.71-3.918-0.211-4.628-2.057
			c-0.709-1.852,0.218-3.919,2.062-4.623c1.847-0.717,3.918,0.198,4.63,2.064C321.832,642.847,320.908,644.917,319.061,645.624z"/>
	</g>
	<g>
		<path fill-rule="evenodd" clip-rule="evenodd" fill="#FDFDFE" d="M269.203,628.414c-1.848,0.707-3.921-0.208-4.628-2.051
			c-0.705-1.849,0.214-3.922,2.062-4.633c1.848-0.717,3.923,0.218,4.633,2.06C271.977,625.64,271.047,627.707,269.203,628.414z"/>
		<path fill-rule="evenodd" clip-rule="evenodd" fill="#FDFDFE" d="M273.447,639.478c-1.848,0.707-3.918-0.211-4.63-2.058
			c-0.71-1.859,0.219-3.922,2.06-4.633c1.848-0.71,3.924,0.208,4.633,2.067C276.221,636.695,275.295,638.771,273.447,639.478z"/>
		<path fill-rule="evenodd" clip-rule="evenodd" fill="#FDFDFE" d="M277.691,650.545c-1.848,0.71-3.922-0.218-4.633-2.073
			c-0.714-1.843,0.222-3.907,2.067-4.614c1.848-0.71,3.919,0.198,4.625,2.048C280.463,647.759,279.539,649.838,277.691,650.545z"/>
		<path fill-rule="evenodd" clip-rule="evenodd" fill="#FDFDFE" d="M285.29,671.848c-1.848,0.71-3.929-0.211-4.636-2.06
			c-0.707-1.846,0.219-3.919,2.07-4.626c1.831-0.707,3.918,0.211,4.625,2.06C288.058,669.071,287.125,671.15,285.29,671.848z"/>
		<path fill-rule="evenodd" clip-rule="evenodd" fill="#FDFDFE" d="M289.539,682.912c-1.852,0.71-3.931-0.211-4.638-2.054
			c-0.71-1.856,0.219-3.926,2.069-4.636c1.833-0.701,3.913,0.211,4.626,2.064C292.303,680.134,291.369,682.208,289.539,682.912z"/>
		<path fill-rule="evenodd" clip-rule="evenodd" fill="#FDFDFE" d="M281.049,660.784c-1.854,0.71-3.927-0.208-4.634-2.054
			c-0.712-1.849,0.221-3.916,2.068-4.626c1.835-0.704,3.915,0.208,4.624,2.06C283.813,658.007,282.884,660.086,281.049,660.784z"/>
	</g>
	<g>
		<path fill-rule="evenodd" clip-rule="evenodd" fill="#FDFDFE" d="M249.596,635.936c-1.857,0.71-3.921-0.211-4.628-2.054
			c-0.705-1.849,0.211-3.923,2.069-4.633c1.841-0.707,3.908,0.218,4.617,2.067C252.361,633.166,251.441,635.233,249.596,635.936z"/>
		<path fill-rule="evenodd" clip-rule="evenodd" fill="#FDFDFE" d="M253.84,647c-1.854,0.71-3.921-0.211-4.626-2.058
			c-0.71-1.859,0.203-3.919,2.06-4.636c1.845-0.707,3.908,0.214,4.622,2.067C256.601,644.22,255.685,646.293,253.84,647z"/>
		<path fill-rule="evenodd" clip-rule="evenodd" fill="#FDFDFE" d="M258.088,658.068c-1.854,0.71-3.922-0.221-4.636-2.077
			c-0.705-1.843,0.216-3.897,2.073-4.614c1.841-0.71,3.902,0.208,4.612,2.054C260.85,655.284,259.929,657.36,258.088,658.068z"/>
		<path fill-rule="evenodd" clip-rule="evenodd" fill="#FDFDFE" d="M265.688,679.37c-1.862,0.714-3.924-0.214-4.631-2.063
			c-0.707-1.843,0.2-3.913,2.064-4.627c1.846-0.707,3.918,0.218,4.628,2.061C268.456,676.589,267.532,678.663,265.688,679.37z"/>
		<path fill-rule="evenodd" clip-rule="evenodd" fill="#FDFDFE" d="M269.929,690.431c-1.854,0.717-3.918-0.211-4.625-2.06
			c-0.715-1.852,0.2-3.913,2.062-4.626c1.844-0.704,3.915,0.208,4.626,2.064C272.7,687.654,271.777,689.724,269.929,690.431z"/>
		<path fill-rule="evenodd" clip-rule="evenodd" fill="#FDFDFE" d="M261.439,668.306c-1.854,0.716-3.916-0.214-4.624-2.06
			c-0.71-1.846,0.203-3.907,2.06-4.62c1.848-0.71,3.918,0.208,4.625,2.057C264.213,665.526,263.287,667.599,261.439,668.306z"/>
	</g>
	<path fill-rule="evenodd" clip-rule="evenodd" fill="#3E353A" d="M286.834,749.465c-7.375,2.831-15.638-0.861-18.463-8.226
		c-2.827-7.372,0.848-15.633,8.223-18.464c7.378-2.832,15.65,0.851,18.475,8.213C297.901,738.359,294.208,746.64,286.834,749.465z"
		/>
	<path fill-rule="evenodd" clip-rule="evenodd" fill="#3E353A" d="M258.188,827.639c-7.368,2.825-15.638-0.857-18.466-8.22
		c-2.833-7.381,0.856-15.661,8.224-18.49c7.381-2.828,15.649,0.864,18.48,8.242C269.254,816.539,265.57,824.804,258.188,827.639z"/>
	<path fill-rule="evenodd" clip-rule="evenodd" fill="#FDFDFE" d="M235.202,835.33c-2.67,1.024-5.678-0.314-6.71-2.995
		c-1.03-2.681,0.323-5.682,2.992-6.709c2.686-1.03,5.699,0.297,6.725,2.985C239.238,831.293,237.894,834.294,235.202,835.33z"/>
	<path fill-rule="evenodd" clip-rule="evenodd" fill="#FDFDFE" d="M217.263,602.777c-2.676,1.024-5.687-0.307-6.716-2.985
		c-1.03-2.691,0.317-5.692,2.992-6.719c2.691-1.033,5.685,0.304,6.719,2.988C221.287,598.745,219.953,601.743,217.263,602.777z"/>
	<path fill-rule="evenodd" clip-rule="evenodd" fill="#FDFDFE" d="M302.668,598.969c-2.676,1.03-5.686-0.307-6.716-2.988
		c-1.032-2.688,0.312-5.686,2.991-6.712c2.68-1.03,5.702,0.294,6.729,2.982C306.701,594.931,305.346,597.945,302.668,598.969z"/>
	<path fill-rule="evenodd" clip-rule="evenodd" fill="#FDFDFE" d="M400.268,551.501c-2.676,1.03-5.674-0.31-6.703-2.988
		c-1.03-2.681,0.304-5.689,2.984-6.719c2.686-1.027,5.69,0.317,6.714,2.995C404.291,547.47,402.96,550.468,400.268,551.501z"/>
	<g>
		<polygon fill-rule="evenodd" clip-rule="evenodd" fill="#474F58" points="184.149,659.549 181.611,652.939 209.484,642.239 
			212.023,648.856 		"/>
		<polygon fill-rule="evenodd" clip-rule="evenodd" fill="#474F58" points="188.684,671.381 186.139,664.751 214.021,654.059 
			216.561,660.681 		"/>
		
			<rect x="202.34" y="659.604" transform="matrix(0.358 0.9337 -0.9337 0.358 761.9893 240.7951)" fill-rule="evenodd" clip-rule="evenodd" fill="#474F58" width="7.087" height="29.856"/>
		
			<rect x="206.875" y="671.423" transform="matrix(0.358 0.9337 -0.9337 0.358 775.9588 244.1808)" fill-rule="evenodd" clip-rule="evenodd" fill="#474F58" width="7.083" height="29.857"/>
		<polygon fill-rule="evenodd" clip-rule="evenodd" fill="#474F58" points="202.102,706.355 199.561,699.728 227.436,689.029 
			229.98,695.662 		"/>
		<polygon fill-rule="evenodd" clip-rule="evenodd" fill="#474F58" points="207.174,719.585 204.638,712.968 232.52,702.269 
			235.056,708.885 		"/>
	</g>
	<path fill-rule="evenodd" clip-rule="evenodd" fill="#4F494E" d="M246.294,709.983c0.083,0.016,26.26,5.631,53.752-3.235
		c9.917-3.196,23.368-7.199,36.817-11.198c24.708-7.352,49.412-14.698,49.957-15.639l5.063,2.947
		c-1.724,2.947-27.533,10.626-53.345,18.304c-13.481,4.012-26.972,8.024-36.692,11.16c-28.964,9.336-56.654,3.401-56.735,3.385
		L246.294,709.983z"/>
	<path fill-rule="evenodd" clip-rule="evenodd" fill="#FDFDFE" d="M240.158,688.597l694.981-263.131l1.056,2.739L241.207,691.333
		L240.158,688.597L240.158,688.597z M222.546,642.688l1.049,2.732l694.99-263.128l-1.056-2.739L222.546,642.688L222.546,642.688z
		 M226.879,653.988l1.053,2.735l694.985-263.131l-1.049-2.739L226.879,653.988L226.879,653.988z M231.218,665.289l1.049,2.739
		l694.988-263.128l-1.05-2.745L231.218,665.289L231.218,665.289z M235.552,676.589l1.049,2.736l694.993-263.132l-1.056-2.739
		L235.552,676.589z"/>
</g>
</svg>
